:SAMPLES-PER-SECOND 30
:FULLY-SPECIFIED
:DEGREES
124
root  34.87147234 36.49503453 -14.65983954 11.39613152 11.33959007 4.475321293
lowerback  -8.133680344 3.368240356 3.638580799
upperback  -4.467289925 3.871180058 -4.803339958
thorax  0.4936389923 1.665969968 -6.723090172
lowerneck  -15.80090046 -0.6680219769 1.797819972
upperneck  11.05109978 -2.371720076 6.063000202
head  6.007069588 -0.6609140038 1.402950048
lclavicle  0 -4.497500157e-015 -2.743230041e-014
lhumerus  -43.84579849 26.8227005 67.67420197
lradius  -0.4927058518 -6.507048965e-006 26.8064003
lwrist  4.824992743e-007 -3.790274832e-007 -32.15869904
lhand  -3.515983174e-031 -36.91009903 -10.67959976
lfingers  90 7.125020027 -90
lthumb  94.82177734 -25.51501465 101.0802536
rclavicle  0 -4.497500157e-015 -2.743230041e-014
rhumerus  64.53700256 -0.04873117432 -52.21419907
rradius  -5.16745672e-007 2.214343908e-008 59.33739853
rwrist  1.129822067e-006 0.001802438172 -168.9219971
rhand  -3.168657042e-031 4.693520069 -5.419750214
rfingers  -90 -7.125020027 -90
rthumb  -83.91567993 -10.37096691 -59.36972046
rfemur  -13.63497353 10.83914948 14.72563648
rtibia  -2.713654518 2.213058233 23.36417961
rfoot  -2.333436966 -14.76238632 -44.45651627
rtoes  4.07987833 19.59692764 -102.0063629
lfemur  -11.25943565 -22.06323624 -18.84848022
ltibia  3.87354207 2.461665154 13.89574623
lfoot  0.7153730989 -29.59376335 29.32643509
ltoes  -8.515622139 -18.16407204 -115.6551895
125
root  34.86610172 36.49363781 -14.66737432 11.44420815 11.576087 4.503069878
lowerback  -8.127300262 3.387860298 3.601990223
upperback  -4.485129833 3.899070024 -4.801459789
thorax  0.4731509984 1.679290056 -6.697999954
lowerneck  -15.75430012 -0.7634609938 1.747419953
upperneck  11.05770016 -2.499200106 6.124639988
head  6.005189896 -0.7216729522 1.418230176
lclavicle  0 -4.497500157e-015 -2.743230041e-014
lhumerus  -43.84460068 26.66159821 67.80130005
lradius  -0.4927058518 -6.507048965e-006 26.88679886
lwrist  4.824992743e-007 -3.790274832e-007 -31.93370056
lhand  -3.516389895e-031 -36.86629868 -10.68089962
lfingers  90 7.125020027 -90
lthumb  94.80151367 -25.51787376 101.033493
rclavicle  0 -4.497500157e-015 -2.743230041e-014
rhumerus  65.12860107 -0.09674774855 -52.29320145
rradius  -5.16745672e-007 2.214343908e-008 58.45690155
rwrist  1.129822067e-006 0.001802438172 -168.5549927
rhand  -3.164029096e-031 4.636089802 -5.488780022
rfingers  -90 -7.125020027 -90
rthumb  -83.96649933 -10.30875301 -59.43245316
rfemur  -13.69841194 10.74122334 14.76551533
rtibia  -2.770655394 2.236791372 23.45620537
rfoot  -2.394491434 -14.68621063 -44.56906128
rtoes  4.079629898 19.59821701 -102.0056229
lfemur  -11.40533352 -22.20335007 -18.78395081
ltibia  3.836982012 2.47861886 13.99479198
lfoot  0.7216962576 -29.64983559 29.2429409
ltoes  -8.559300423 -18.14407349 -115.7953796
126
root  34.86298689 36.49226211 -14.67309787 11.46895313 11.80865765 4.511207104
lowerback  -8.119020462 3.408899784 3.558900356
upperback  -4.506770134 3.928359985 -4.810669899
thorax  0.4481639862 1.692659974 -6.681069851
lowerneck  -15.72389984 -0.8397049904 1.678629994
upperneck  11.06270027 -2.594969988 6.179049969
head  6.005680084 -0.7676320672 1.43734014
lclavicle  0 -4.497500157e-015 -2.743230041e-014
lhumerus  -43.82839966 26.60210037 67.84899902
lradius  -0.4927058518 -6.507048965e-006 26.89539719
lwrist  4.824992743e-007 -3.790274832e-007 -32.06969833
lhand  -3.528256812e-031 -36.80270004 -10.54679966
lfingers  90 7.125020027 -90
lthumb  94.74346924 -25.3883934 100.9533539
rclavicle  0 -4.497500157e-015 -2.743230041e-014
rhumerus  65.68419647 -0.1638824046 -52.30400085
rradius  -5.16745672e-007 2.214343908e-008 57.56430054
rwrist  1.129822067e-006 0.001802438172 -168.0209961
rhand  -3.160056937e-031 4.407390118 -5.549409866
rfingers  -90 -7.125020027 -90
rthumb  -84.05735779 -10.24530888 -59.66218948
rfemur  -13.70923233 10.65886688 14.81405258
rtibia  -2.80798316 2.276445866 23.48828125
rfoot  -2.429123402 -14.57897949 -44.69569778
rtoes  4.043436527 19.59948921 -101.897728
lfemur  -11.56332779 -22.35684013 -18.69966888
ltibia  3.770101309 2.480337858 14.1617527
lfoot  0.7254113555 -29.71484184 29.15995598
ltoes  -8.574203491 -18.13722229 -115.8432388
127
root  34.86061397 36.49010245 -14.68148269 11.49163628 11.99543667 4.512551785
lowerback  -8.136349678 3.439450026 3.542629957
upperback  -4.521430016 3.967489958 -4.846109867
thorax  0.449398011 1.71081996 -6.705080032
lowerneck  -15.72719955 -0.9049069881 1.672260046
upperneck  11.10490036 -2.686759949 6.18874979
head  6.022230148 -0.8107850552 1.432549953
lclavicle  0 -4.497500157e-015 -2.743230041e-014
lhumerus  -43.7969017 26.6480999 67.77850342
lradius  -0.4927058518 -6.507048965e-006 26.81279945
lwrist  4.824992743e-007 -3.790274832e-007 -32.31980133
lhand  -3.522679393e-031 -36.8030014 -10.61400032
lfingers  90 7.125020027 -90
lthumb  94.75775146 -25.45434189 100.9597626
rclavicle  0 -4.497500157e-015 -2.743230041e-014
rhumerus  66.21749878 -0.2753180861 -52.40030289
rradius  -5.16745672e-007 2.214343908e-008 56.68450165
rwrist  1.129822067e-006 0.001802438172 -167.822998
rhand  -3.171636584e-031 4.488649845 -5.377150059
rfingers  -90 -7.125020027 -90
rthumb  -83.94758606 -10.39783764 -59.56669617
rfemur  -13.73354912 10.55650902 14.86362171
rtibia  -2.846208811 2.3049016 23.52079773
rfoot  -2.443715096 -14.48988533 -44.74734116
rtoes  4.052779198 19.60075188 -101.9255753
lfemur  -11.74661636 -22.46964073 -18.60508919
ltibia  3.686207533 2.48284173 14.36904716
lfoot  0.7307672501 -29.80388832 29.07014084
ltoes  -8.559267998 -18.13681602 -115.7952728
128
root  34.85619552 36.48820412 -14.68870959 11.51043892 12.23916531 4.54517889
lowerback  -8.193609238 3.464479923 3.573439837
upperback  -4.520589828 3.996890068 -4.887030125
thorax  0.4907679856 1.725340009 -6.760580063
lowerneck  -15.73649979 -0.982953012 1.704110026
upperneck  11.09749985 -2.799410105 6.184209824
head  6.023849964 -0.8650450706 1.414819956
lclavicle  0 -4.497500157e-015 -2.743230041e-014
lhumerus  -43.74240112 26.73970032 67.69599915
lradius  -0.4927058518 -6.507048965e-006 26.71469879
lwrist  4.824992743e-007 -3.790274832e-007 -32.54600143
lhand  -3.509526522e-031 -36.82360077 -10.76970005
lfingers  90 7.125020027 -90
lthumb  94.80029297 -25.60651779 100.9959946
rclavicle  0 -4.497500157e-015 -2.743230041e-014
rhumerus  66.73100281 -0.4498875439 -52.41139984
rradius  -5.16745672e-007 2.214343908e-008 55.80590057
rwrist  1.129822067e-006 0.001802438172 -167.5200043
rhand  -3.187873203e-031 4.642620087 -5.135449886
rfingers  -90 -7.125020027 -90
rthumb  -83.78197479 -10.61317921 -59.39288712
rfemur  -13.77727222 10.47114277 14.89859295
rtibia  -2.89841485 2.36244154 23.6432724
rfoot  -2.521711349 -14.37826157 -44.8705368
rtoes  4.080411434 19.60201836 -102.0079575
lfemur  -11.76685238 -22.54833984 -18.59695625
ltibia  3.705214977 2.518917084 14.33327293
lfoot  0.7202813625 -29.85222626 28.95409966
ltoes  -8.567206383 -18.13944626 -115.8207626
